<svg xmlns="http://www.w3.org/2000/svg" width="13" height="15" viewBox="0 0 13 15">
    <g fill="#F95563" fill-rule="nonzero" stroke="#F95563" stroke-width=".2">
        <path d="M11.604 4.376H3.177c-.78 0-1.419-.597-1.419-1.332 0-.733.636-1.332 1.42-1.332h8.429c.21 0 .379-.161.379-.356 0-.198-.171-.356-.38-.356H3.178C1.977 1 1 1.917 1 3.044v8.899c0 1.126.977 2.044 2.177 2.044h8.43c.21 0 .379-.16.379-.356v-8.9a.372.372 0 0 0-.382-.355zm-.38 8.9H3.178c-.78 0-1.419-.597-1.419-1.333V4.595c.382.308.878.495 1.42.495h8.047v8.185z"/>
        <path d="M3.297 2.72c-.211 0-.38.16-.38.356 0 .195.172.355.38.355h7.119c.21 0 .379-.16.379-.355 0-.196-.171-.356-.38-.356H3.298z"/>
    </g>
</svg>
