<svg xmlns="http://www.w3.org/2000/svg" width="11" height="11" viewBox="0 0 11 11">
    <path fill="#F95563" fill-rule="nonzero" stroke="#FFF" stroke-width=".1" d="M10.797 10.055L8.083 7.264A4.286 4.286 0 0 0 9.15 4.44C9.15 2.021 7.11.05 4.6.05S.05 2.02.05 4.441c0 2.421 2.04 4.391 4.55 4.391.942 0 1.84-.273 2.671-.788l2.732 2.743a.556.556 0 0 0 .397.163.558.558 0 0 0 .382-.148.516.516 0 0 0 .015-.747zM4.6 1.109c1.902 0 3.45 1.494 3.45 3.332 0 1.838-1.548 3.333-3.45 3.333-1.902 0-3.45-1.495-3.45-3.333S2.698 1.11 4.6 1.11z"/>
</svg>
